<svg id="Layer_1" data-name="Layer 1" xmlns="http://www.w3.org/2000/svg" viewBox="0 0 61.6 45.31"><defs><style>.cls-1{fill:#fff;}.cls-1,.cls-2{stroke:#e2e8ef;stroke-linecap:round;}.cls-1,.cls-2,.cls-3{stroke-miterlimit:10;}.cls-2,.cls-3{fill:none;}.cls-2{stroke-width:0.25px;}.cls-3{stroke:#eef2f7;}.cls-4,.cls-5,.cls-6{fill:#5fc5be;}.cls-4{opacity:0.44;}.cls-5{opacity:0.3;}.cls-6{opacity:0.32;}</style></defs><title>city</title><polyline class="cls-1" points="61.1 44.8 57.66 44.8 57.66 28.56 42.41 28.56 42.41 44.8 40.13 44.8 40.13 30.7 38.39 30.7 38.39 0.8 29.9 4.93 29.9 36.91 28.51 36.91 28.51 13.65 28.51 7.43 18.26 7.43 18.26 14.28 18.26 44.8 16.93 44.8 16.93 18.26 7.32 18.26 7.32 44.8 0.5 44.8"/><rect class="cls-2" x="8.96" y="20.43" width="1.42" height="1.42" rx="0.2"/><rect class="cls-2" x="8.96" y="23.16" width="1.42" height="1.42" rx="0.2"/><rect class="cls-2" x="8.96" y="25.9" width="1.42" height="1.42" rx="0.2"/><rect class="cls-2" x="8.96" y="28.63" width="1.42" height="1.42" rx="0.2"/><rect class="cls-2" x="8.96" y="31.37" width="1.42" height="1.42" rx="0.2"/><rect class="cls-2" x="8.96" y="34.1" width="1.42" height="1.42" rx="0.2"/><rect class="cls-2" x="8.96" y="36.84" width="1.42" height="1.42" rx="0.2"/><rect class="cls-2" x="8.96" y="39.57" width="1.42" height="1.42" rx="0.2"/><rect class="cls-2" x="11.45" y="20.43" width="1.42" height="1.42" rx="0.2"/><rect class="cls-2" x="11.45" y="23.16" width="1.42" height="1.42" rx="0.2"/><rect class="cls-2" x="11.45" y="25.9" width="1.42" height="1.42" rx="0.2"/><rect class="cls-2" x="11.45" y="28.63" width="1.42" height="1.42" rx="0.2"/><rect class="cls-2" x="11.45" y="31.37" width="1.42" height="1.42" rx="0.2"/><rect class="cls-2" x="11.45" y="34.1" width="1.42" height="1.42" rx="0.2"/><rect class="cls-2" x="11.45" y="36.84" width="1.42" height="1.42" rx="0.2"/><rect class="cls-2" x="11.45" y="39.57" width="1.42" height="1.42" rx="0.2"/><rect class="cls-2" x="13.93" y="20.43" width="1.42" height="1.42" rx="0.2"/><rect class="cls-2" x="13.93" y="23.16" width="1.42" height="1.42" rx="0.2"/><rect class="cls-2" x="13.93" y="25.9" width="1.42" height="1.42" rx="0.2"/><rect class="cls-2" x="13.93" y="28.63" width="1.42" height="1.42" rx="0.2"/><rect class="cls-2" x="13.93" y="31.37" width="1.42" height="1.42" rx="0.2"/><rect class="cls-2" x="13.93" y="34.1" width="1.42" height="1.42" rx="0.2"/><rect class="cls-2" x="13.93" y="36.84" width="1.42" height="1.42" rx="0.2"/><rect class="cls-2" x="13.93" y="39.57" width="1.42" height="1.42" rx="0.2"/><path class="cls-3" d="M36.65,53.87" transform="translate(-0.9 -4.58)"/><path class="cls-3" d="M40,57.23" transform="translate(-0.9 -4.58)"/><path class="cls-3" d="M27.73,32" transform="translate(-0.9 -4.58)"/><path class="cls-3" d="M-35.08,95.3" transform="translate(-0.9 -4.58)"/><path class="cls-2" d="M45.24,45.87v-7.6a2.46,2.46,0,1,1,4.87,0v7.6Z" transform="translate(-0.9 -4.58)"/><path class="cls-2" d="M45.61,45.44V38.27a2.08,2.08,0,1,1,4.13,0v7.17Z" transform="translate(-0.9 -4.58)"/><path class="cls-2" d="M46,45V38.27a1.71,1.71,0,1,1,3.38,0V45Z" transform="translate(-0.9 -4.58)"/><path class="cls-2" d="M47.68,36.76a1.43,1.43,0,0,0-1.32,1.51v6.32H49V38.27A1.43,1.43,0,0,0,47.68,36.76Z" transform="translate(-0.9 -4.58)"/><path class="cls-2" d="M51.31,45.87v-7.6a2.46,2.46,0,1,1,4.87,0v7.6Z" transform="translate(-0.9 -4.58)"/><path class="cls-2" d="M51.68,45.45V38.27a2.08,2.08,0,1,1,4.13,0v7.18Z" transform="translate(-0.9 -4.58)"/><path class="cls-2" d="M52.06,45V38.27a1.71,1.71,0,1,1,3.38,0V45Z" transform="translate(-0.9 -4.58)"/><path class="cls-2" d="M53.75,36.76a1.43,1.43,0,0,0-1.32,1.51v6.32h2.63V38.27A1.43,1.43,0,0,0,53.75,36.76Z" transform="translate(-0.9 -4.58)"/><polyline class="cls-2" points="36.75 3.6 31.64 6.04 31.64 27.69"/><polyline class="cls-2" points="36.77 4.59 32.49 6.63 32.49 28.28"/><polyline class="cls-2" points="36.77 5.6 33.35 7.23 33.35 28.88"/><polyline class="cls-2" points="36.77 6.6 34.21 7.82 34.21 29.47"/><polyline class="cls-2" points="36.77 7.61 35.07 8.42 35.07 30.07"/><polyline class="cls-2" points="36.77 8.61 35.93 9.01 35.93 30.66"/><polyline class="cls-2" points="31.4 28.28 37.83 32.72 37.83 45.11"/><polyline class="cls-2" points="31.41 29.45 37.02 33.31 37.02 45.11"/><polyline class="cls-2" points="31.41 30.6 36.22 33.91 36.22 45.11"/><polyline class="cls-2" points="31.41 31.75 35.41 34.5 35.41 45.11"/><polyline class="cls-2" points="31.4 32.89 34.6 35.09 34.6 45.11"/><polyline class="cls-2" points="31.4 34.04 33.79 35.69 33.79 45.11"/><polyline class="cls-2" points="31.4 35.19 32.98 36.28 32.98 45.11"/><polyline class="cls-2" points="31.37 36.32 32.18 36.88 32.18 45.11"/><line class="cls-2" x1="31.37" y1="37.47" x2="31.37" y2="45.11"/><line class="cls-2" x1="19.67" y1="9.07" x2="27.13" y2="9.07"/><line class="cls-2" x1="19.67" y1="9.79" x2="27.13" y2="9.79"/><line class="cls-2" x1="19.67" y1="10.52" x2="27.13" y2="10.52"/><line class="cls-2" x1="19.67" y1="11.24" x2="27.13" y2="11.24"/><line class="cls-2" x1="19.67" y1="11.96" x2="27.13" y2="11.96"/><line class="cls-2" x1="19.67" y1="12.69" x2="27.13" y2="12.69"/><line class="cls-2" x1="19.67" y1="13.41" x2="27.13" y2="13.41"/><line class="cls-2" x1="19.67" y1="14.14" x2="27.13" y2="14.14"/><line class="cls-2" x1="19.67" y1="14.86" x2="27.13" y2="14.86"/><line class="cls-2" x1="19.67" y1="15.58" x2="27.13" y2="15.58"/><line class="cls-2" x1="19.67" y1="16.72" x2="27.13" y2="16.72"/><line class="cls-2" x1="19.67" y1="17.86" x2="27.13" y2="17.86"/><line class="cls-2" x1="19.67" y1="19" x2="27.13" y2="19"/><line class="cls-2" x1="19.67" y1="20.14" x2="27.13" y2="20.14"/><line class="cls-2" x1="19.67" y1="21.28" x2="27.13" y2="21.28"/><line class="cls-2" x1="19.67" y1="22.42" x2="27.13" y2="22.42"/><line class="cls-2" x1="19.67" y1="23.56" x2="27.13" y2="23.56"/><line class="cls-2" x1="19.67" y1="24.7" x2="27.13" y2="24.7"/><line class="cls-2" x1="19.67" y1="25.84" x2="27.13" y2="25.84"/><line class="cls-2" x1="19.67" y1="26.97" x2="27.13" y2="26.97"/><line class="cls-2" x1="19.67" y1="28.67" x2="27.13" y2="28.67"/><line class="cls-2" x1="19.67" y1="30.36" x2="27.13" y2="30.36"/><line class="cls-2" x1="19.67" y1="32.05" x2="27.13" y2="32.05"/><line class="cls-2" x1="19.67" y1="33.75" x2="27.13" y2="33.75"/><line class="cls-2" x1="19.67" y1="35.44" x2="27.13" y2="35.44"/><line class="cls-2" x1="19.67" y1="37.13" x2="27.13" y2="37.13"/><line class="cls-2" x1="19.67" y1="40.15" x2="27.13" y2="40.15"/><line class="cls-2" x1="19.67" y1="43.17" x2="27.13" y2="43.17"/><line class="cls-2" x1="46.77" y1="32.18" x2="46.77" y2="39.9"/><line class="cls-2" x1="45.46" y1="38.84" x2="48.09" y2="38.84"/><line class="cls-2" x1="45.46" y1="37.62" x2="48.09" y2="37.62"/><line class="cls-2" x1="45.46" y1="36.41" x2="48.09" y2="36.41"/><line class="cls-2" x1="45.46" y1="35.19" x2="48.09" y2="35.19"/><line class="cls-2" x1="45.46" y1="33.98" x2="48.09" y2="33.98"/><line class="cls-2" x1="52.84" y1="32.18" x2="52.84" y2="39.9"/><line class="cls-2" x1="51.53" y1="38.84" x2="54.16" y2="38.84"/><line class="cls-2" x1="51.53" y1="37.62" x2="54.16" y2="37.62"/><line class="cls-2" x1="51.53" y1="36.41" x2="54.16" y2="36.41"/><line class="cls-2" x1="51.53" y1="35.19" x2="54.16" y2="35.19"/><line class="cls-2" x1="51.53" y1="33.98" x2="54.16" y2="33.98"/><path class="cls-4" d="M50.23,25.74H44.77a.84.84,0,0,1-.84-.84h0a.84.84,0,0,1,.84-.84h.67a.83.83,0,0,0,.84-.84h0a.83.83,0,0,0-.84-.83H36.31a.84.84,0,0,0-.84.83h0a.84.84,0,0,0,.84.84h5.28a.85.85,0,0,1,.84.84h0a.85.85,0,0,1-.84.84h-.14a.84.84,0,0,0-.84.84h0a.84.84,0,0,0,.84.84h8.78a.84.84,0,0,0,.83-.84h0A.84.84,0,0,0,50.23,25.74Z" transform="translate(-0.9 -4.58)"/><path class="cls-5" d="M8.59,13.86h5.46a.84.84,0,0,1,.83.84h0a.83.83,0,0,1-.83.84h-.68a.84.84,0,0,0-.84.84h0a.84.84,0,0,0,.84.84H22.5a.84.84,0,0,0,.84-.84h0a.84.84,0,0,0-.84-.84H17.22a.84.84,0,0,1-.84-.84h0a.85.85,0,0,1,.84-.84h.14A.83.83,0,0,0,18.2,13h0a.83.83,0,0,0-.84-.84H8.59a.83.83,0,0,0-.84.84h0A.83.83,0,0,0,8.59,13.86Z" transform="translate(-0.9 -4.58)"/><path class="cls-6" d="M57.1,13H54.69a.83.83,0,0,1-.83-.83h0a.84.84,0,0,1,.83-.84h.64a.83.83,0,0,0,.83-.83h0a.83.83,0,0,0-.83-.83H51.51a.84.84,0,0,1-.84-.83h0A.85.85,0,0,1,51.51,8h0a.83.83,0,0,0,.83-.83h0a.83.83,0,0,0-.83-.83H47.08a.83.83,0,0,0-.83.83h0a.83.83,0,0,0,.83.83h1.27a.85.85,0,0,1,.84.84h0a.84.84,0,0,1-.84.83H46.26a.83.83,0,0,0-.83.83h0a.83.83,0,0,0,.83.83h3.09a.84.84,0,0,1,.83.84h0a.83.83,0,0,1-.83.83h-1a.83.83,0,0,0-.83.83h0a.83.83,0,0,0,.83.83H57.1a.84.84,0,0,0,.84-.83h0A.84.84,0,0,0,57.1,13Z" transform="translate(-0.9 -4.58)"/></svg>