<svg id="Layer_1" data-name="Layer 1" xmlns="http://www.w3.org/2000/svg" viewBox="0 0 368 342"><defs><style>.cls-1{fill:#1e1d2f;}.cls-2{fill:#fff;}.cls-3,.cls-4{fill:none;}.cls-4{stroke:#fff;stroke-miterlimit:10;stroke-width:2px;}</style></defs><title>local-bandit-logo</title><path class="cls-1" d="M159.93,249.34h0Z"/><circle class="cls-2" cx="218.27" cy="187.46" r="8.65"/><path class="cls-2" d="M288.9,153.79c3.65-12.5,9.57-35.85,7.52-51.43-.59-4.42-1.84-8.37-5-10.65-1.67-1.2-5.91-3.4-17.56.52-6.75,2.28-18.24,7.39-30.27,19.72l-.2-.16a133.21,133.21,0,0,0-65.53-17.14c-18.46,0-35.63,4.74-51.94,10.78q-2.33.85-4.64,1.76a26.65,26.65,0,0,0-5.91,3.08c-11.42-11.13-22.16-15.87-28.6-18-11.66-3.92-15.9-1.72-17.57-.52-3.18,2.28-4.43,6.23-5,10.65-1.81,13.69,2.55,33.39,6.11,46.45A133.22,133.22,0,0,0,44,226.1a69.75,69.75,0,0,1,34-12.44c.39,0,1-.08,1.94-.12,6-20.47,31.2-34.41,35.85-37,9-5,31.34-17.35,47.22-6.44,9.21,6.33,15,19.61,12,30.35-3.58,13.14-17.31,12-25,26.67-5.74,11-2.83,20.64-1.77,27.89a45,45,0,0,0,16,8.94c4.42,1.26,8.8,1.32,10.58-.41,3.61-3.52-1.46-8-5.73-13l-.87-.75-4.37-4.38a7.21,7.21,0,0,1,5.1-12.3h18.07a7.21,7.21,0,0,1,5.1,12.3l-4.38,4.38a7,7,0,0,1-1.16.93h0c-5.31,5.62-7.76,9.47-4.32,13.15,1.13,1.21,3,1.45,5.43,1.06a44.83,44.83,0,0,0,22.52-12.68c1.2-6.87,2.83-15.52-2.21-25.14-7.69-14.67-21.42-13.53-25-26.67-2.93-10.74,2.83-24,12-30.35,15.89-10.91,38.23,1.46,47.22,6.44,4.53,2.51,28.5,15.8,35.34,35.4a80.31,80.31,0,0,1,17.26,5.89,67.83,67.83,0,0,1,13.6,8.73l3.2,3.12C311.3,202.75,303,174.63,288.9,153.79Z"/><circle class="cls-2" cx="138.18" cy="187.46" r="8.65"/><path class="cls-3" d="M288.9,153.79c3.65-12.5,9.57-35.85,7.52-51.43-.59-4.42-1.84-8.37-5-10.65-1.67-1.2-5.91-3.4-17.56.52-6.75,2.28-18.24,7.39-30.27,19.72l-.2-.16a133.21,133.21,0,0,0-65.53-17.14c-18.46,0-35.63,4.74-51.94,10.78q-2.33.85-4.64,1.76a26.65,26.65,0,0,0-5.91,3.08c-11.42-11.13-22.16-15.87-28.6-18-11.66-3.92-15.9-1.72-17.57-.52-3.18,2.28-4.43,6.23-5,10.65-1.81,13.69,2.55,33.39,6.11,46.45A133.22,133.22,0,0,0,44,226.1a69.75,69.75,0,0,1,34-12.44A73.41,73.41,0,0,1,118.89,223a55,55,0,0,1,5.51,3.62l1.46,1.1.07.07a78,78,0,0,1,13.13,16.2,45.07,45.07,0,0,0,77.13.74,193.11,193.11,0,0,1,12.53-17.93l.06-.07c3.78-4.77,7.85-7.65,14.1-11.16,21.43-12,48.59.66,52,2.32a67.83,67.83,0,0,1,13.6,8.73l3.2,3.12C311.3,202.75,303,174.63,288.9,153.79Z"/><path class="cls-4" d="M288.9,153.79c3.65-12.5,9.57-35.85,7.52-51.43-.59-4.42-1.84-8.37-5-10.65-1.67-1.2-5.91-3.4-17.56.52-6.75,2.28-18.24,7.39-30.27,19.72l-.2-.16a133.21,133.21,0,0,0-65.53-17.14c-18.46,0-35.63,4.74-51.94,10.78q-2.33.85-4.64,1.76a26.65,26.65,0,0,0-5.91,3.08c-11.42-11.13-22.16-15.87-28.6-18-11.66-3.92-15.9-1.72-17.57-.52-3.18,2.28-4.43,6.23-5,10.65-1.81,13.69,2.55,33.39,6.11,46.45A133.22,133.22,0,0,0,44,226.1a69.75,69.75,0,0,1,34-12.44A73.41,73.41,0,0,1,118.89,223a55,55,0,0,1,5.51,3.62l1.46,1.1.07.07a78,78,0,0,1,13.13,16.2,45.07,45.07,0,0,0,77.13.74,193.11,193.11,0,0,1,12.53-17.93l.06-.07c3.78-4.77,7.85-7.65,14.1-11.16,21.43-12,48.59.66,52,2.32a67.83,67.83,0,0,1,13.6,8.73l3.2,3.12C311.3,202.75,303,174.63,288.9,153.79Z"/></svg>